:SAMPLES-PER-SECOND 24
:FULLY-SPECIFIED
:DEGREES
397
root  6.43965 34.0851 36.6928 -167.528 -50.3115 -178.936
RightUpLeg  -39.043 17.7622 -15.4315
RightLeg  58.159 -3.53871 -6.38512
RightFoot  -31.6128 1.90864 11.9222
RightToes  -2.08645e-008 3.77894e-005 6.81332e-007
Spine  26.176 -0.557357 -3.1609
Spine1  -6.16135 0.28989 -10.3304
HEad  -47.2828 -20.653 9.31501
LeftShoulder1  9.17142 -14.7819 -43.6974
LeftArm  -0.502472 -11.5504 -15.7164
LeftForeArm  67.4711 -78.9272 -62.8907
LeftHand  -0.846213 -2.18185 13.1655
RightShoulder  4.94309 7.54698 38.7196
RightArm  13.728 -12.7553 42.985
RightForeArm  67.5762 77.907 51.6265
RightHand  -0.998302 7.04458 -9.48117
LeftUpLeg  -42.6053 1.85721 10.6058
LeftLeg  58.5159 2.63745 5.268
LeftFoot  -25.9077 -1.55887 -13.3693
LeftToes  1.24767e-006 1.47042e-008 1.32732e-009
398
root  5.62238 35.2219 36.8377 -170.552 -39.3737 -174.89
RightUpLeg  -36.9706 22.5594 -14.6564
RightLeg  48.2241 0.374389 0.115885
RightFoot  -27.405 0.777441 6.82362
RightToes  -2.08645e-008 3.77894e-005 6.81332e-007
Spine  22.3966 -1.44409 -11.6622
Spine1  -5.02317 -3.5206 1.7186
HEad  -43.9964 -21.2136 14.7546
LeftShoulder1  7.21498 -13.3783 -36.674
LeftArm  1.28138 -22.4729 -23.686
LeftForeArm  104.995 -80.4722 -92.6029
LeftHand  -0.772638 -2.45456 11.6351
RightShoulder  4.48567 7.25403 35.7809
RightArm  19.1392 -25.1042 34.6876
RightForeArm  117.528 80.5655 100.129
RightHand  -0.799344 10.5464 -6.21151
LeftUpLeg  -35.7593 5.31052 11.5485
LeftLeg  54.2528 7.14429 11.0347
LeftFoot  -24.8273 -1.55507 -14.3456
LeftToes  1.24767e-006 1.47042e-008 1.32732e-009
399
root  4.50637 37.9111 36.955 -173.207 -26.4255 -168.839
RightUpLeg  -32.1587 20.4919 -9.52034
RightLeg  30.0561 15.1875 8.7963
RightFoot  -8.91588 -0.483514 9.12799
RightToes  -2.08645e-008 3.77894e-005 6.81332e-007
Spine  18.9739 -2.79147 -16.2115
Spine1  -3.11666 -7.08296 13.6007
HEad  -39.306 -20.9076 18.955
LeftShoulder1  6.04814 -12.3614 -32.1411
LeftArm  6.09197 -25.5578 -30.3374
LeftForeArm  139.095 -78.9552 -122.819
LeftHand  -0.591596 -2.30657 9.12702
RightShoulder  4.05799 6.94743 32.9391
RightArm  18.163 -30.447 23.943
RightForeArm  131.798 79.7075 115.371
RightHand  -1.01735 9.55761 -8.24206
LeftUpLeg  -23.9702 11.0594 14.8239
LeftLeg  40.7734 15.0114 13.7576
LeftFoot  -17.5195 -0.767148 -16.5757
LeftToes  1.24767e-006 1.47042e-008 1.32732e-009
400
root  3.40334 41.2636 36.4739 -172.609 -11.9317 -164.051
RightUpLeg  -24.2379 7.19908 0.115389
RightLeg  9.12924 21.4062 5.77339
RightFoot  13.3168 -5.24021 23.8245
RightToes  -2.08645e-008 3.77894e-005 6.81332e-007
Spine  13.2795 -4.55722 -19.3052
Spine1  -0.125947 -10.1929 22.5842
HEad  -32.3443 -24.002 20.4615
LeftShoulder1  5.94235 -12.2789 -31.6482
LeftArm  12.2851 -19.7373 -34.8868
LeftForeArm  151.769 -77.0349 -134.839
LeftHand  -0.39279 -2.94019 5.71581
RightShoulder  3.73079 6.59045 31.0654
RightArm  14.8085 -31.7716 18.5648
RightForeArm  139.641 78.6882 124.367
RightHand  -0.49568 7.98193 -4.68521
LeftUpLeg  -10.4507 15.8319 19.3824
LeftLeg  21.8255 29.8472 11.656
LeftFoot  1.83807 1.91124 -17.1025
LeftToes  1.24767e-006 1.47042e-008 1.32732e-009
401
root  2.52589 44.3332 35.756 -168.826 2.33646 -162.356
RightUpLeg  -23.1991 -3.93115 4.88158
RightLeg  6.50907 5.69441 4.33615
RightFoot  19.9133 -5.91001 21.5573
RightToes  -2.08645e-008 3.77894e-005 6.81332e-007
Spine  8.15071 -6.81471 -21.0878
Spine1  0.130758 -12.7141 28.0129
HEad  -24.4081 -30.9224 20.9988
LeftShoulder1  6.06617 -12.2993 -32.3871
LeftArm  17.2301 -9.21901 -38.3091
LeftForeArm  158.317 -76.0183 -139.481
LeftHand  -0.278308 -4.13526 3.67315
RightShoulder  3.6715 6.46882 30.9187
RightArm  16.4348 -32.5681 16.9957
RightForeArm  152.362 76.4018 136.991
RightHand  -0.218725 9.34208 -2.13531
LeftUpLeg  -1.04078 13.403 19.2844
LeftLeg  3.07641 39.9077 1.69613
LeftFoot  24.9048 4.74389 -14.9843
LeftToes  1.24767e-006 1.47042e-008 1.32732e-009
402
root  1.7346 46.7773 35.5058 -165.934 14.4809 -162.654
RightUpLeg  -30.5735 -3.95127 2.6966
RightLeg  26.3147 -0.896767 -0.707106
RightFoot  15.3216 -2.53256 11.1082
RightToes  -2.08645e-008 3.77894e-005 6.81332e-007
Spine  9.26888 -7.56017 -21.4555
Spine1  -2.67826 -13.7478 31.7041
HEad  -22.5648 -38.1416 23.9189
LeftShoulder1  5.8366 -12.059 -31.5008
LeftArm  20.9065 -1.67389 -41.7049
LeftForeArm  165.602 -74.3442 -145.114
LeftHand  -0.154864 -5.16695 2.01175
RightShoulder  3.73518 6.53924 31.2983
RightArm  20.909 -32.8729 18.0882
RightForeArm  160.722 74.1178 144.776
RightHand  -0.83703 9.39429 -6.94308
LeftUpLeg  0.225499 8.97643 13.8067
LeftLeg  -0.598537 24.7207 -1.00576
LeftFoot  36.8353 7.72902 -17.7232
LeftToes  1.24767e-006 1.47042e-008 1.32732e-009
403
root  0.816115 48.0989 35.4093 -164.402 25.6113 -160.697
RightUpLeg  -39.3162 1.31969 -3.29128
RightLeg  53.0593 0.012055 -0.258092
RightFoot  12.0398 -0.572492 3.15034
RightToes  -2.08645e-008 3.77894e-005 6.81332e-007
Spine  13.4372 -6.46391 -17.3074
Spine1  -3.24563 -13.3201 33.0694
HEad  -27.0725 -43.2595 28.6732
LeftShoulder1  5.47838 -11.9221 -29.4867
LeftArm  23.847 -0.982735 -43.6433
LeftForeArm  167.289 -72.0881 -149.813
LeftHand  -0.0439256 -4.46125 0.813152
RightShoulder  3.75394 6.55964 31.4105
RightArm  22.3379 -30.2785 21.5384
RightForeArm  161.565 74.0956 144.955
RightHand  -0.642942 8.73892 -5.65351
LeftUpLeg  -1.75637 6.68362 10.0703
LeftLeg  4.91515 5.66101 -0.392451
LeftFoot  32.9733 7.08152 -17.7672
LeftToes  1.24767e-006 1.47042e-008 1.32732e-009
404
root  -0.22532 48.9915 34.96 -159.659 37.9984 -154.354
RightUpLeg  -46.9235 3.73183 -6.82149
RightLeg  71.4059 0.0656606 -1.1482
RightFoot  5.83179 0.265251 -1.48072
RightToes  -2.08645e-008 3.77894e-005 6.81332e-007
Spine  15.8082 -4.55156 -10.1205
Spine1  -2.13383 -11.1777 31.8576
HEad  -29.2215 -46.5148 29.5109
LeftShoulder1  5.25232 -11.912 -28.0081
LeftArm  25.3293 -2.76822 -41.5956
LeftForeArm  167.883 -69.2203 -154.142
LeftHand  -0.05346 -3.42819 0.9491
RightShoulder  3.71656 6.50055 31.2559
RightArm  22.6422 -24.8452 24.0308
RightForeArm  153.306 76.1069 138.1
RightHand  0.108221 10.1149 0.385663
LeftUpLeg  -0.965302 6.07665 10.2542
LeftLeg  4.74311 8.79275 0.605678
LeftFoot  30.8615 5.08293 -13.6691
LeftToes  1.24767e-006 1.47042e-008 1.32732e-009
405
root  -1.13349 49.3083 34.1691 -148.646 49.6963 -143.257
RightUpLeg  -54.671 3.72587 -10.5778
RightLeg  80.5623 -0.426328 -5.48145
RightFoot  -0.451482 0.313568 -3.31871
RightToes  -2.08645e-008 3.77894e-005 6.81332e-007
Spine  17.228 -2.79083 -3.47638
Spine1  -2.83632 -8.31703 30.5128
HEad  -26.5258 -47.9137 25.644
LeftShoulder1  4.99407 -11.5389 -27.1103
LeftArm  23.9707 -0.0711473 -35.1805
LeftForeArm  174.255 -65.505 -158.937
LeftHand  -0.027204 -3.64028 0.607323
RightShoulder  3.64402 6.48205 30.5905
RightArm  25.7687 -18.4913 23.7427
RightForeArm  144.526 77.5045 131.245
RightHand  0.0483127 9.96487 -0.0412604
LeftUpLeg  0.593206 6.46169 12.9195
LeftLeg  1.3425 12.4331 0.918285
LeftFoot  31.1101 4.58912 -12.2864
LeftToes  1.24767e-006 1.47042e-008 1.32732e-009
406
root  -1.65598 48.6529 33.1852 -134.799 55.883 -129.927
RightUpLeg  -60.2316 -1.58945 -15.1829
RightLeg  86.0529 0.0805883 -6.29081
RightFoot  -3.47037 0.306897 -4.79637
RightToes  -2.08645e-008 3.77894e-005 6.81332e-007
Spine  19.1952 -2.75632 2.79848
Spine1  -4.47758 -6.86081 29.5804
HEad  -24.428 -48.4793 22.4455
LeftShoulder1  4.60366 -10.8517 -25.9394
LeftArm  21.034 8.85306 -27.0961
LeftForeArm  178.462 -61.9917 -162.236
LeftHand  -0.0199307 -3.5429 0.510299
RightShoulder  3.44565 6.38136 28.9201
RightArm  29.0245 -12.7579 23.9245
RightForeArm  147.018 77.0395 133.645
RightHand  -0.29348 8.55239 -2.82194
LeftUpLeg  0.431547 7.60883 16.2818
LeftLeg  2.2741 3.50011 1.23751
LeftFoot  27.5136 4.68943 -13.7412
LeftToes  1.24767e-006 1.47042e-008 1.32732e-009
407
root  -1.92092 47.3155 32.061 -123.468 57.6102 -120.178
RightUpLeg  -61.5058 -10.453 -22.782
RightLeg  86.8316 0.0973389 -8.86765
RightFoot  -7.56156 0.109885 -4.9008
RightToes  -2.08645e-008 3.77894e-005 6.81332e-007
Spine  18.5632 -3.6519 9.42788
Spine1  -4.25967 -6.59099 27.5132
HEad  -25.8836 -50.3483 22.2489
LeftShoulder1  4.3289 -10.4802 -24.7801
LeftArm  19.1006 19.0903 -19.7533
LeftForeArm  174.887 -60.6537 -162.835
LeftHand  -0.117708 -3.18744 1.82942
RightShoulder  3.17667 6.05785 27.2372
RightArm  29.1542 -10.0092 24.8353
RightForeArm  155.483 74.8872 141.963
RightHand  -0.164581 8.56256 -1.75422
LeftUpLeg  -0.812962 6.87207 18.5894
LeftLeg  3.53671 0.292153 2.31383
LeftFoot  26.2475 3.8934 -11.9208
LeftToes  1.24767e-006 1.47042e-008 1.32732e-009
408
root  -1.83998 45.4747 31.045 -112.796 59.4022 -112.276
RightUpLeg  -58.6776 -17.5844 -34.2181
RightLeg  79.4166 -1.64887 -12.5781
RightFoot  -10.5365 -0.0301121 -6.32452
RightToes  -2.08645e-008 3.77894e-005 6.81332e-007
Spine  15.0305 -2.75812 14.5363
Spine1  -2.52963 -4.9333 22.7795
HEad  -30.0575 -53.6792 24.5139
LeftShoulder1  4.09251 -10.4062 -23.1641
LeftArm  18.7337 26.7014 -13.9303
LeftForeArm  171.135 -61.9703 -161.551
LeftHand  -0.13942 -3.19204 2.11956
RightShoulder  2.9685 5.63292 26.4791
RightArm  27.5736 -11.3736 24.4076
RightForeArm  164.318 70.962 151.116
RightHand  0.0300184 8.87518 -0.145958
LeftUpLeg  -1.69585 7.39599 20.1731
LeftLeg  4.643 0.71942 2.99543
LeftFoot  23.7269 2.59293 -8.74219
LeftToes  1.24767e-006 1.47042e-008 1.32732e-009
409
root  -1.65618 43.1204 30.2122 -101.344 59.0282 -99.8647
RightUpLeg  -50.5067 -16.4788 -43.7309
RightLeg  64.8662 -6.24704 -14.9205
RightFoot  -8.29597 0.196141 -9.26967
RightToes  -2.08645e-008 3.77894e-005 6.81332e-007
Spine  17.3953 -1.57593 20.6197
Spine1  -2.62218 -1.49212 17.8406
HEad  -34.7867 -55.8795 27.4284
LeftShoulder1  3.83894 -10.1683 -21.7384
LeftArm  18.2725 34.1118 -8.39135
LeftForeArm  170.455 -63.5496 -160.295
LeftHand  0.046196 -3.92996 -0.299017
RightShoulder  2.81804 5.28274 26.0442
RightArm  27.0141 -12.2316 24.5313
RightForeArm  169.554 67.6658 156.232
RightHand  0.140508 9.09643 0.727581
LeftUpLeg  0.368735 4.71282 23.9503
LeftLeg  11.5132 -0.434599 1.06613
LeftFoot  7.10295 0.760193 -4.91438
LeftToes  1.24767e-006 1.47042e-008 1.32732e-009
410
root  -1.5234 40.7227 29.4092 -94.3585 54.6843 -88.0594
RightUpLeg  -38.6414 -6.15671 -47.3802
RightLeg  46.3021 -14.802 -16.2651
RightFoot  -3.86255 0.669339 -10.5982
RightToes  -2.08645e-008 3.77894e-005 6.81332e-007
Spine  24.9664 -2.71816 26.7598
Spine1  -2.60912 0.686264 16.5657
HEad  -38.1343 -54.5901 28.1517
LeftShoulder1  3.84408 -9.77848 -22.6585
LeftArm  14.1856 42.0814 -6.04739
LeftForeArm  165.228 -67.4442 -155.957
LeftHand  0.112418 -4.38199 -1.0532
RightShoulder  2.8022 5.2031 26.1619
RightArm  26.9675 -7.90422 26.9024
RightForeArm  168.634 69.7144 153.587
RightHand  0.224727 10.0178 1.27742
LeftUpLeg  3.38753 -0.425377 26.6325
LeftLeg  22.4063 4.69433 2.45106
LeftFoot  -12.7928 0.094809 1.42471
LeftToes  1.24767e-006 1.47042e-008 1.32732e-009
411
root  -1.04648 39.1475 28.8085 -87.9258 50.9037 -78.8836
RightUpLeg  -29.3014 6.48556 -46.4811
RightLeg  28.6316 -26.0375 -14.6593
RightFoot  -2.4539 0.691528 -9.03153
RightToes  -2.08645e-008 3.77894e-005 6.81332e-007
Spine  28.0551 -3.51124 29.1407
Spine1  1.22857 0.989445 16.8628
HEad  -39.6396 -50.9985 27.0397
LeftShoulder1  4.25705 -9.84406 -25.7499
LeftArm  4.79636 46.0047 -11.8238
LeftForeArm  144.486 -76.1289 -135.661
LeftHand  -0.223247 -3.35057 3.21571
RightShoulder  3.14529 5.64567 28.4186
RightArm  25.081 -3.13194 28.2782
RightForeArm  164.351 75.2212 142.812
RightHand  0.561404 10.6486 3.65595
LeftUpLeg  4.76087 -4.67811 25.2026
LeftLeg  31.5005 17.4897 11.5153
LeftFoot  -21.3904 0.378555 2.97177
LeftToes  1.24767e-006 1.47042e-008 1.32732e-009
